# xmcd
#
# Track frame offsets:
# 150
# 21937
# 37881
# 59444
# 72902
# 85680
# 97555
# 114360
# 129983
# 150036
#
# Disc length: 2160 seconds
#
#
# Revision: 0
# Processed by: cddbd v1.5.1PL0 Copyright (c) Steve Scherf et al.
# Submitted via: FreeRIP 2.942 
#
DISCID=65086e0a
DTITLE=The Great Mahalia Jackson - 1971 - The Great Mahalia Jackson - 1971
DYEAR=1900
DGENRE=
TTITLE0=Garden of Prayer
TTITLE1=Nobody Knows the Trouble I´ve Seen
TTITLE2=Just a Closer Walk With Thee
TTITLE3=Rock of Ages
TTITLE4=We Shall Overcome
TTITLE5=Down By The Riverside
TTITLE6=I Believe
TTITLE7=Danny Boy
TTITLE8=Sunrise, Sunset
TTITLE9=A Mighty Fortress is Our God
EXTD=
EXTT0=
EXTT1=
EXTT2=
EXTT3=
EXTT4=
EXTT5=
EXTT6=
EXTT7=
EXTT8=
EXTT9=
PLAYORDER=
